<svg width="525" height="160" viewBox="0 0 525 160" fill="none" xmlns="http://www.w3.org/2000/svg">
<path fill-rule="evenodd" clip-rule="evenodd" d="M25.602 0H134.398C148.531 0 160 11.4603 160 25.602V134.398C160 148.54 148.54 160 134.398 160H25.602C11.4603 160 0 148.54 0 134.398V25.602C0 11.4603 11.4603 0 25.602 0ZM111.725 32.3059H124.133C125.927 32.3059 127.37 33.7577 127.37 35.551V124.449C127.37 126.234 125.927 127.686 124.133 127.686H35.8583C34.0735 127.686 32.6217 126.234 32.6217 124.449V84.0224C32.6217 82.2376 34.0735 80.7858 35.8583 80.7858H48.2665C50.0513 80.7858 51.503 82.2376 51.503 84.0224V107.174C51.503 108.07 52.2289 108.796 53.1255 108.796H69.0948C69.9915 108.796 70.7173 108.07 70.7173 107.174V59.7782C70.7173 57.9934 72.1606 56.5416 73.9539 56.5416H86.3621C88.1469 56.5416 89.5986 57.9848 89.5986 59.7782V107.174C89.5986 108.07 90.3245 108.796 91.2212 108.796H106.866C107.763 108.796 108.488 108.07 108.488 107.174V35.5425C108.488 33.7577 109.932 32.3059 111.725 32.3059Z" fill="#DF1125"/>
<path d="M210.404 130.752C208.412 130.752 206.624 130.332 205.04 129.492C203.456 128.652 202.22 127.488 201.332 126C200.444 124.488 200 122.784 200 120.888C200 118.992 200.444 117.3 201.332 115.812C202.22 114.324 203.444 113.16 205.004 112.32C206.588 111.48 208.388 111.06 210.404 111.06C212.3 111.06 213.956 111.444 215.372 112.212C216.812 112.98 217.892 114.084 218.612 115.524L215.156 117.54C214.604 116.652 213.908 115.992 213.068 115.56C212.252 115.104 211.352 114.876 210.368 114.876C208.688 114.876 207.296 115.428 206.192 116.532C205.088 117.612 204.536 119.064 204.536 120.888C204.536 122.712 205.076 124.176 206.156 125.28C207.26 126.36 208.664 126.9 210.368 126.9C211.352 126.9 212.252 126.684 213.068 126.252C213.908 125.796 214.604 125.124 215.156 124.236L218.612 126.252C217.868 127.692 216.776 128.808 215.336 129.6C213.92 130.368 212.276 130.752 210.404 130.752Z" fill="#DF1125"/>
<path d="M231.581 130.752C229.637 130.752 227.885 130.332 226.325 129.492C224.765 128.652 223.541 127.488 222.653 126C221.789 124.488 221.357 122.784 221.357 120.888C221.357 118.992 221.789 117.3 222.653 115.812C223.541 114.324 224.765 113.16 226.325 112.32C227.885 111.48 229.637 111.06 231.581 111.06C233.549 111.06 235.313 111.48 236.873 112.32C238.433 113.16 239.645 114.324 240.509 115.812C241.397 117.3 241.841 118.992 241.841 120.888C241.841 122.784 241.397 124.488 240.509 126C239.645 127.488 238.433 128.652 236.873 129.492C235.313 130.332 233.549 130.752 231.581 130.752ZM231.581 126.9C233.237 126.9 234.605 126.348 235.685 125.244C236.765 124.14 237.305 122.688 237.305 120.888C237.305 119.088 236.765 117.636 235.685 116.532C234.605 115.428 233.237 114.876 231.581 114.876C229.925 114.876 228.557 115.428 227.477 116.532C226.421 117.636 225.893 119.088 225.893 120.888C225.893 122.688 226.421 124.14 227.477 125.244C228.557 126.348 229.925 126.9 231.581 126.9Z" fill="#DF1125"/>
<path d="M271.128 111.06C273.552 111.06 275.472 111.768 276.888 113.184C278.304 114.576 279.012 116.676 279.012 119.484V130.5H274.512V120.06C274.512 118.38 274.14 117.12 273.396 116.28C272.652 115.416 271.584 114.984 270.192 114.984C268.68 114.984 267.468 115.488 266.556 116.496C265.644 117.48 265.188 118.896 265.188 120.744V130.5H260.688V120.06C260.688 118.38 260.316 117.12 259.572 116.28C258.828 115.416 257.76 114.984 256.368 114.984C254.832 114.984 253.608 115.476 252.696 116.46C251.808 117.444 251.364 118.872 251.364 120.744V130.5H246.864V111.276H251.148V113.724C251.868 112.86 252.768 112.2 253.848 111.744C254.928 111.288 256.128 111.06 257.448 111.06C258.888 111.06 260.16 111.336 261.264 111.888C262.392 112.416 263.28 113.208 263.928 114.264C264.72 113.256 265.74 112.476 266.988 111.924C268.236 111.348 269.616 111.06 271.128 111.06Z" fill="#DF1125"/>
<path d="M304.094 111.276V130.5H299.81V128.052C299.09 128.916 298.19 129.588 297.11 130.068C296.03 130.524 294.866 130.752 293.618 130.752C291.05 130.752 289.022 130.044 287.534 128.628C286.07 127.188 285.338 125.064 285.338 122.256V111.276H289.838V121.644C289.838 123.372 290.222 124.668 290.99 125.532C291.782 126.372 292.898 126.792 294.338 126.792C295.946 126.792 297.218 126.3 298.154 125.316C299.114 124.308 299.594 122.868 299.594 120.996V111.276H304.094Z" fill="#DF1125"/>
<path d="M321.614 111.06C324.038 111.06 325.982 111.768 327.446 113.184C328.91 114.6 329.642 116.7 329.642 119.484V130.5H325.142V120.06C325.142 118.38 324.746 117.12 323.954 116.28C323.162 115.416 322.034 114.984 320.57 114.984C318.914 114.984 317.606 115.488 316.646 116.496C315.686 117.48 315.206 118.908 315.206 120.78V130.5H310.706V111.276H314.99V113.76C315.734 112.872 316.67 112.2 317.798 111.744C318.926 111.288 320.198 111.06 321.614 111.06Z" fill="#DF1125"/>
<path d="M336.071 111.276H340.571V130.5H336.071V111.276ZM338.339 108.108C337.523 108.108 336.839 107.856 336.287 107.352C335.735 106.824 335.459 106.176 335.459 105.408C335.459 104.64 335.735 104.004 336.287 103.5C336.839 102.972 337.523 102.708 338.339 102.708C339.155 102.708 339.839 102.96 340.391 103.464C340.943 103.944 341.219 104.556 341.219 105.3C341.219 106.092 340.943 106.764 340.391 107.316C339.863 107.844 339.179 108.108 338.339 108.108Z" fill="#DF1125"/>
<path d="M356.017 130.752C354.025 130.752 352.237 130.332 350.653 129.492C349.069 128.652 347.833 127.488 346.945 126C346.057 124.488 345.613 122.784 345.613 120.888C345.613 118.992 346.057 117.3 346.945 115.812C347.833 114.324 349.057 113.16 350.617 112.32C352.201 111.48 354.001 111.06 356.017 111.06C357.913 111.06 359.569 111.444 360.985 112.212C362.425 112.98 363.505 114.084 364.225 115.524L360.769 117.54C360.217 116.652 359.521 115.992 358.681 115.56C357.865 115.104 356.965 114.876 355.981 114.876C354.301 114.876 352.909 115.428 351.805 116.532C350.701 117.612 350.149 119.064 350.149 120.888C350.149 122.712 350.689 124.176 351.769 125.28C352.873 126.36 354.277 126.9 355.981 126.9C356.965 126.9 357.865 126.684 358.681 126.252C359.521 125.796 360.217 125.124 360.769 124.236L364.225 126.252C363.481 127.692 362.389 128.808 360.949 129.6C359.533 130.368 357.889 130.752 356.017 130.752Z" fill="#DF1125"/>
<path d="M376.179 111.06C379.011 111.06 381.171 111.744 382.659 113.112C384.171 114.456 384.927 116.496 384.927 119.232V130.5H380.679V128.16C380.127 129 379.335 129.648 378.303 130.104C377.295 130.536 376.071 130.752 374.631 130.752C373.191 130.752 371.931 130.512 370.851 130.032C369.771 129.528 368.931 128.844 368.331 127.98C367.755 127.092 367.467 126.096 367.467 124.992C367.467 123.264 368.103 121.884 369.375 120.852C370.671 119.796 372.699 119.268 375.459 119.268H380.427V118.98C380.427 117.636 380.019 116.604 379.203 115.884C378.411 115.164 377.223 114.804 375.639 114.804C374.559 114.804 373.491 114.972 372.435 115.308C371.403 115.644 370.527 116.112 369.807 116.712L368.043 113.436C369.051 112.668 370.263 112.08 371.679 111.672C373.095 111.264 374.595 111.06 376.179 111.06ZM375.567 127.476C376.695 127.476 377.691 127.224 378.555 126.72C379.443 126.192 380.067 125.448 380.427 124.488V122.256H375.783C373.191 122.256 371.895 123.108 371.895 124.812C371.895 125.628 372.219 126.276 372.867 126.756C373.515 127.236 374.415 127.476 375.567 127.476Z" fill="#DF1125"/>
<path d="M400.418 130.752C398.426 130.752 396.638 130.332 395.054 129.492C393.47 128.652 392.234 127.488 391.346 126C390.458 124.488 390.014 122.784 390.014 120.888C390.014 118.992 390.458 117.3 391.346 115.812C392.234 114.324 393.458 113.16 395.018 112.32C396.602 111.48 398.402 111.06 400.418 111.06C402.314 111.06 403.97 111.444 405.386 112.212C406.826 112.98 407.906 114.084 408.626 115.524L405.17 117.54C404.618 116.652 403.922 115.992 403.082 115.56C402.266 115.104 401.366 114.876 400.382 114.876C398.702 114.876 397.31 115.428 396.206 116.532C395.102 117.612 394.55 119.064 394.55 120.888C394.55 122.712 395.09 124.176 396.17 125.28C397.274 126.36 398.678 126.9 400.382 126.9C401.366 126.9 402.266 126.684 403.082 126.252C403.922 125.796 404.618 125.124 405.17 124.236L408.626 126.252C407.882 127.692 406.79 128.808 405.35 129.6C403.934 130.368 402.29 130.752 400.418 130.752ZM398.546 138.708C397.25 138.708 396.146 138.456 395.234 137.952L396.062 135.828C396.806 136.212 397.622 136.404 398.51 136.404C399.782 136.404 400.418 135.972 400.418 135.108C400.418 134.748 400.262 134.46 399.95 134.244C399.638 134.028 399.158 133.92 398.51 133.92H397.394L398.366 130.248H400.814L400.31 132.264C401.342 132.384 402.122 132.708 402.65 133.236C403.178 133.788 403.442 134.472 403.442 135.288C403.442 136.32 402.998 137.148 402.11 137.772C401.222 138.396 400.034 138.708 398.546 138.708Z" fill="#DF1125"/>
<path d="M420.58 111.06C423.412 111.06 425.572 111.744 427.06 113.112C428.572 114.456 429.328 116.496 429.328 119.232V130.5H425.08V128.16C424.528 129 423.736 129.648 422.704 130.104C421.696 130.536 420.472 130.752 419.032 130.752C417.592 130.752 416.332 130.512 415.252 130.032C414.172 129.528 413.332 128.844 412.732 127.98C412.156 127.092 411.868 126.096 411.868 124.992C411.868 123.264 412.504 121.884 413.776 120.852C415.072 119.796 417.1 119.268 419.86 119.268H424.828V118.98C424.828 117.636 424.42 116.604 423.604 115.884C422.812 115.164 421.624 114.804 420.04 114.804C418.96 114.804 417.892 114.972 416.836 115.308C415.804 115.644 414.928 116.112 414.208 116.712L412.444 113.436C413.452 112.668 414.664 112.08 416.08 111.672C417.496 111.264 418.996 111.06 420.58 111.06ZM419.968 127.476C421.096 127.476 422.092 127.224 422.956 126.72C423.844 126.192 424.468 125.448 424.828 124.488V122.256H420.184C417.592 122.256 416.296 123.108 416.296 124.812C416.296 125.628 416.62 126.276 417.268 126.756C417.916 127.236 418.816 127.476 419.968 127.476ZM423.568 108.648C422.968 108.648 422.44 108.528 421.984 108.288C421.552 108.048 421.012 107.688 420.364 107.208C419.98 106.896 419.656 106.668 419.392 106.524C419.152 106.356 418.912 106.272 418.672 106.272C418.168 106.272 417.748 106.464 417.412 106.848C417.1 107.232 416.932 107.76 416.908 108.432H414.496C414.52 106.968 414.88 105.804 415.576 104.94C416.296 104.052 417.232 103.608 418.384 103.608C418.984 103.608 419.5 103.728 419.932 103.968C420.388 104.208 420.94 104.568 421.588 105.048C421.972 105.36 422.284 105.6 422.524 105.768C422.788 105.912 423.04 105.984 423.28 105.984C423.784 105.984 424.192 105.804 424.504 105.444C424.84 105.084 425.02 104.58 425.044 103.932H427.456C427.408 105.348 427.036 106.488 426.34 107.352C425.644 108.216 424.72 108.648 423.568 108.648Z" fill="#DF1125"/>
<path d="M444.639 130.752C442.695 130.752 440.943 130.332 439.383 129.492C437.823 128.652 436.599 127.488 435.711 126C434.847 124.488 434.415 122.784 434.415 120.888C434.415 118.992 434.847 117.3 435.711 115.812C436.599 114.324 437.823 113.16 439.383 112.32C440.943 111.48 442.695 111.06 444.639 111.06C446.607 111.06 448.371 111.48 449.931 112.32C451.491 113.16 452.703 114.324 453.567 115.812C454.455 117.3 454.899 118.992 454.899 120.888C454.899 122.784 454.455 124.488 453.567 126C452.703 127.488 451.491 128.652 449.931 129.492C448.371 130.332 446.607 130.752 444.639 130.752ZM444.639 126.9C446.295 126.9 447.663 126.348 448.743 125.244C449.823 124.14 450.363 122.688 450.363 120.888C450.363 119.088 449.823 117.636 448.743 116.532C447.663 115.428 446.295 114.876 444.639 114.876C442.983 114.876 441.615 115.428 440.535 116.532C439.479 117.636 438.951 119.088 438.951 120.888C438.951 122.688 439.479 124.14 440.535 125.244C441.615 126.348 442.983 126.9 444.639 126.9Z" fill="#DF1125"/>
<path d="M461.822 39.4241C469.656 39.4241 475.672 41.3041 479.87 45.0641C484.069 48.7614 486.168 54.3701 486.168 61.8901V88.7481C486.168 89.8526 485.273 90.7481 484.168 90.7481H474.444C473.34 90.7481 472.444 89.8526 472.444 88.7481V84.4501C469.687 89.1501 464.548 91.5001 457.028 91.5001C453.143 91.5001 449.759 90.8421 446.876 89.5261C444.056 88.2101 441.894 86.3927 440.39 84.0741C438.886 81.7554 438.134 79.1234 438.134 76.1781C438.134 71.4781 439.889 67.7807 443.398 65.0861C446.97 62.3914 452.454 61.0441 459.848 61.0441H470.504C471.057 61.0441 471.509 60.5953 471.471 60.0443C471.286 57.3338 470.325 55.2231 468.59 53.7121C466.648 51.9574 463.734 51.0801 459.848 51.0801C457.154 51.0801 454.49 51.5187 451.858 52.3961C450.173 52.9306 448.649 53.6001 447.286 54.4044C446.201 55.0455 444.741 54.7349 444.165 53.6133L440.809 47.0812C440.354 46.1941 440.617 45.0999 441.468 44.5804C443.907 43.0922 446.712 41.9061 449.884 41.0221C453.77 39.9567 457.749 39.4241 461.822 39.4241ZM460.694 81.6301C463.201 81.6301 465.426 81.0661 467.368 79.9381C469.311 78.7474 470.69 77.0241 471.504 74.7681V71.5981C471.504 70.4935 470.609 69.5981 469.504 69.5981H461.446C455.43 69.5981 452.422 71.5721 452.422 75.5201C452.422 77.4001 453.143 78.9041 454.584 80.0321C456.088 81.0974 458.125 81.6301 460.694 81.6301Z" fill="#4E5355"/>
<path d="M417.031 23C417.031 21.8954 417.926 21 419.031 21H429.695C430.8 21 431.695 21.8954 431.695 23V88.748C431.695 89.8526 430.8 90.748 429.695 90.748H419.031C417.926 90.748 417.031 89.8526 417.031 88.748V23Z" fill="#4E5355"/>
<path d="M383.293 39.4241C391.127 39.4241 397.143 41.3041 401.341 45.0641C405.54 48.7614 407.639 54.3701 407.639 61.8901V88.7481C407.639 89.8526 406.744 90.7481 405.639 90.7481H395.915C394.811 90.7481 393.915 89.8526 393.915 88.7481V84.4501C391.158 89.1501 386.019 91.5001 378.499 91.5001C374.614 91.5001 371.23 90.8421 368.347 89.5261C365.527 88.2101 363.365 86.3927 361.861 84.0741C360.357 81.7554 359.605 79.1234 359.605 76.1781C359.605 71.4781 361.36 67.7807 364.869 65.0861C368.441 62.3914 373.925 61.0441 381.319 61.0441H391.975C392.528 61.0441 392.98 60.5953 392.942 60.0443C392.756 57.3338 391.796 55.2231 390.061 53.7121C388.119 51.9574 385.205 51.0801 381.319 51.0801C378.625 51.0801 375.961 51.5187 373.329 52.3961C371.644 52.9306 370.12 53.6001 368.757 54.4044C367.672 55.0455 366.212 54.7349 365.636 53.6133L362.28 47.0812C361.824 46.1941 362.088 45.0999 362.939 44.5804C365.378 43.0922 368.183 41.9061 371.355 41.0221C375.241 39.9567 379.22 39.4241 383.293 39.4241ZM382.165 81.6301C384.672 81.6301 386.897 81.0661 388.839 79.9381C390.782 78.7474 392.161 77.0241 392.975 74.7681V71.5981C392.975 70.4935 392.08 69.5981 390.975 69.5981H382.917C376.901 69.5981 373.893 71.5721 373.893 75.5201C373.893 77.4001 374.614 78.9041 376.055 80.0321C377.559 81.0974 379.596 81.6301 382.165 81.6301Z" fill="#4E5355"/>
<path d="M333.678 91.5001C328.289 91.5001 323.432 90.4034 319.108 88.2101C314.847 85.9541 311.494 82.8521 309.05 78.9041C306.669 74.9561 305.478 70.4754 305.478 65.4621C305.478 60.4487 306.669 55.9681 309.05 52.0201C311.494 48.0721 314.847 45.0014 319.108 42.8081C323.432 40.5521 328.289 39.4241 333.678 39.4241C339.005 39.4241 343.642 40.5521 347.59 42.8081C351.047 44.6985 353.689 47.3105 355.517 50.6442C356.018 51.5591 355.623 52.6828 354.704 53.1766L346.68 57.4874C345.723 58.0015 344.542 57.6475 343.906 56.7666C341.35 53.2262 337.91 51.4561 333.584 51.4561C329.762 51.4561 326.597 52.7094 324.09 55.2161C321.584 57.7227 320.33 61.1381 320.33 65.4621C320.33 69.7861 321.584 73.2014 324.09 75.7081C326.597 78.2147 329.762 79.4681 333.584 79.4681C337.95 79.4681 341.389 77.7099 343.901 74.1936C344.54 73.299 345.737 72.937 346.703 73.4635L354.702 77.8266C355.621 78.3281 356.007 79.4604 355.492 80.3719C353.665 83.5991 351.031 86.1805 347.59 88.1161C343.642 90.3721 339.005 91.5001 333.678 91.5001Z" fill="#4E5355"/>
<path d="M278.195 91.5001C273.996 91.5001 269.891 90.9987 265.881 89.9961C262.649 89.1377 259.947 88.1166 257.773 86.9328C256.902 86.4587 256.602 85.3823 257.019 84.4832L260.218 77.5947C260.727 76.4967 262.088 76.1032 263.163 76.6598C264.983 77.6016 267.048 78.4124 269.359 79.0921C272.555 79.9694 275.688 80.4081 278.759 80.4081C284.963 80.4081 288.065 78.8727 288.065 75.8021C288.065 74.3607 287.219 73.3267 285.527 72.7001C283.835 72.0734 281.234 71.5407 277.725 71.1021C273.589 70.4754 270.173 69.7547 267.479 68.9401C264.784 68.1254 262.434 66.6841 260.429 64.6161C258.486 62.5481 257.515 59.6027 257.515 55.7801C257.515 52.5841 258.423 49.7641 260.241 47.3201C262.121 44.8134 264.815 42.8707 268.325 41.4921C271.897 40.1134 276.095 39.4241 280.921 39.4241C284.493 39.4241 288.033 39.8314 291.543 40.6461C294.34 41.2349 296.752 42.0157 298.781 42.9887C299.708 43.4335 300.046 44.5519 299.61 45.4833L296.405 52.3239C295.912 53.3775 294.628 53.7826 293.576 53.2865C289.658 51.4395 285.439 50.5161 280.921 50.5161C277.787 50.5161 275.437 50.9547 273.871 51.8321C272.304 52.7094 271.521 53.8374 271.521 55.2161C271.521 56.7827 272.367 57.8794 274.059 58.5061C275.751 59.1327 278.445 59.7281 282.143 60.2921C286.279 60.9814 289.663 61.7334 292.295 62.5481C294.927 63.3001 297.214 64.7101 299.157 66.7781C301.099 68.8461 302.071 71.7287 302.071 75.4261C302.071 78.5594 301.131 81.3481 299.251 83.7921C297.371 86.2361 294.613 88.1474 290.979 89.5261C287.407 90.8421 283.145 91.5001 278.195 91.5001Z" fill="#4E5355"/>
<path d="M253.298 65.6501C253.298 65.7833 253.251 66.4835 253.156 67.7506C253.079 68.7928 252.209 69.5981 251.164 69.5981H216.002C215.363 69.5981 214.886 70.1906 215.079 70.7997C215.892 73.3709 217.414 75.4457 219.646 77.0241C222.215 78.8414 225.411 79.7501 229.234 79.7501C231.866 79.7501 234.185 79.3741 236.19 78.6221C237.667 78.0401 239.065 77.2342 240.382 76.2044C241.266 75.5134 242.55 75.5406 243.31 76.3654L248.509 82.0024C249.201 82.7531 249.223 83.9129 248.492 84.6258C243.791 89.2087 237.246 91.5001 228.858 91.5001C223.155 91.5001 218.111 90.4034 213.724 88.2101C209.337 85.9541 205.953 82.8521 203.572 78.9041C201.191 74.9561 200 70.4754 200 65.4621C200 60.5114 201.159 56.0621 203.478 52.1141C205.859 48.1034 209.087 45.0014 213.16 42.8081C217.296 40.5521 221.902 39.4241 226.978 39.4241C231.929 39.4241 236.409 40.4894 240.42 42.6201C244.431 44.7507 247.564 47.8214 249.82 51.8321C252.139 55.7801 253.298 60.3861 253.298 65.6501ZM227.072 50.5161C223.751 50.5161 220.962 51.4561 218.706 53.3361C216.721 54.9902 215.415 57.1779 214.789 59.8992C214.651 60.4965 215.123 61.0441 215.736 61.0441H238.311C238.925 61.0441 239.397 60.4945 239.256 59.8969C238.627 57.2349 237.323 55.0793 235.344 53.4301C233.088 51.4874 230.331 50.5161 227.072 50.5161Z" fill="#4E5355"/>
<path d="M507.566 46.8501C509.321 44.4061 511.671 42.5574 514.616 41.3041C517.098 40.27 519.878 39.6626 522.957 39.4816C524.06 39.4168 524.956 40.3195 524.956 41.4241V50.8003C524.956 51.9653 523.964 52.8769 522.801 52.8129C522.307 52.7857 521.929 52.7721 521.666 52.7721C517.467 52.7721 514.177 53.9627 511.796 56.3441C509.415 58.6627 508.224 62.1721 508.224 66.8721V88.7481C508.224 89.8526 507.329 90.7481 506.224 90.7481H495.56C494.455 90.7481 493.56 89.8526 493.56 88.7481V42.1761C493.56 41.0715 494.455 40.1761 495.56 40.1761H505.566C506.671 40.1761 507.566 41.0715 507.566 42.1761V46.8501Z" fill="#4E5355"/>
</svg>
